<?xml version="1.0" encoding="UTF-8"?><svg id="b" xmlns="http://www.w3.org/2000/svg" viewBox="0 0 1758.17 334.41"><g id="c"><path d="M1169.38,208.19c6.63-6.48,19.21-5.52,26.79-1,10.55,6.28,6.38,12.4,9.14,21.86,1.92,6.6,6.21,10.98,13.22,11.78l166.89-.11c32.12-3.84,34.08-50.16,2.66-56.44l-164.54-.46c-82.81-8.93-81.71-122.86,1.95-129.02,56.79-4.19,118.69,3.2,176.02.05,28.97,3.58,51.01,27.07,51.55,56.53.43,23.61-31.1,31.72-40.52,10.43-4.75-10.75-.54-23.2-17.01-24.99l-166.88.13c-29.51,3.19-34.13,37.54-4.04,43.79,52.05,3.1,108.35-3.85,159.9.1,90.98,6.97,89.73,135.31,4.05,142.02-56.59,4.44-118.88-3.42-176.07,0-16.45-2.21-32.18-10.79-40.88-25.12-8.35-13.74-15.36-36.71-2.22-49.56Z"/><path d="M421.02,178.82l-59.8-90.69c-13.07-22.9,14.22-47.28,33.32-26.32l127.03,189.97c11.52,24.44-18.55,45.18-36.37,23.37-12.66-15.49-22.53-37.06-34.68-53.32l-2.93-1.07-139.87.25-2.14,1.86c-12.25,16.1-22.56,38.57-35.11,53.89-14.08,17.19-43.03,2.47-35.9-19.9,16.09-21.81,28.28-48.45,43.62-70.38,3.13-4.48,7.69-7.62,13.34-7.66,1.88-.01,3.83,1.03,5.96,1.04,41.28.16,82.33-.73,123.53-1.05Z"/><path d="M635.02,96.83v170.5c0,.64-5.56,9.37-6.64,10.36-9.34,8.63-24.67,6.17-31.8-3.92-.58-.82-3.56-6.07-3.56-6.44V96.83h-107.5c-1.11,0-9.66-5.63-10.94-7.06-11.44-12.84-4.52-30.36,11.03-34.85l253.96-.13c19.29.27,26.6,26.21,11.39,37.48-.88.65-7.95,4.57-8.43,4.57h-107.5Z"/><path d="M1634.02,96.83v170.5c0,.77-4.84,8.81-6.06,9.94-9.58,8.86-24.95,7.02-32.38-3.5-.58-.82-3.56-6.07-3.56-6.44V96.83h-107.5c-2.34,0-10.81-7.22-12.5-9.5-9.38-12.63-1.5-28.42,12.59-32.41l253.96-.13c19.38.28,26.64,26.18,11.39,37.48-.88.65-7.95,4.57-8.43,4.57h-107.5Z"/><path d="M166.02,96.83v170.5c0,.77-4.84,8.81-6.06,9.94-9.35,8.66-23.45,7.13-31.35-2.53-.76-.93-4.59-6.98-4.59-7.41V96.83H16.52c-2.52,0-11.22-7.61-12.94-10.06-8.23-11.79-1.31-25.75,10.72-31.16l259.13-.69c17.63,3.4,23.19,26.68,8.52,37.35-.9.66-7.96,4.56-8.44,4.56h-107.5Z"/><path d="M858.86,0l4.1,13.39c3.97,2.82,13.7-7.53,15.07.99,1.53,9.55-14.06,11.4-20.05,16.01l2.99,7.98c1.55,1,4.42.08,6.36.64,4.06,1.17,9,22.66,10.4,27.6,1.92,6.76,8.31,26.72,6.82,32.24-1.27,4.71-6.87,7.15-3.06,14l3.43-.13c.68-2.02-.9-6.73.71-7.99,4.79-3.75,6.84.04,8.71-.07.71-.04,12.2-5.79,12.68-6.31,2.65-2.93-.86-6.07.43-8.5.69-1.3,6.46-4.98,7.55-4.02l2.02,9c1.04,1.1,9.31-6.61,10.75.69,1.91,9.72-5.63,7.5-6.64,10.96l1.43,9.33c-4.19,2.65-6.93,7.53-9.03.03l-8.51,4.98c5.31-.07,6.41,3.27,8.03,7.47,5.59,14.49,16.33,51.49,18.51,66.49.65,4.44,1.14,12.09-2.99,15.11-1.55,1.14-4.03,1.12-5.94,2.06-9.11,4.51-17.18,14.22-22.39,1.15-8.19-20.54-11.36-46.87-18.96-68.03-.57-3.47-.59-7.29.97-10.51,2.48-5.15,9.78-4.47,5.76-12.73l-68.49,36.97c-4.73-5.36-1.6-11.23-.69-17.18-6.78-21.7-11.48-44.13-18.31-65.79-.65-2.07-1.8-6.92-2.66-8.34-1.77-2.93-7.35-2.08-7.66-10.45-.13-3.59,2.58-3.44,3.29-5.15.42-1.02-.81-3.55-.05-6.1,1.06-3.52,7.36-6.45,10.89-6.84l5,4.77,30.69-15.9c-3-4.56-3.41-12.91-5.57-16.92-2.49-4.61-10.82-3.12-5.47-10.61l29.87-.29ZM846.08,16.78c7.58-.48,8.11-5.84,3.34-10.83l-6.4,1.89,3.05,8.94ZM871.92,110.94c-9.32.72-9.95-3.88-12.39-11.11-3.01-8.93-12.02-37.8-12.26-45.77-.18-6.05,5.28-9.35,5.42-10.7.1-.9-2.29-7.45-3.16-7.5l-20.21,11.42c.48,10.96,8.25,4.06,12.21,12.54,3.73,7.99,9.98,32.58,11.99,42.01.8,3.76,1.9,7.47,1.42,11.4-.68,5.6-8.94,10.2-1.6,14.49l19.57-10.01-.99-6.77ZM844.01,133.78c-1.06-9.33-3.95-6.29-8.97-8.47-4.02-1.74-9.27-23.9-10.73-29.27-1.99-7.36-7.76-23.91-6.04-30.48,1.19-4.53,7.69-7.26,2.27-14.73l-10.34,6.17,21.84,82.82,11.98-6.05Z"/><path d="M1156.02,110.84l-25.92,14.57c-63.86,40.63-116.53,101.06-147.94,170.06-3.62,7.96-6.59,19.77-10.37,26.63-6.15,11.17-36.85,17.25-45.78,7.24-8.15-9.14-.74-27.51,3.02-37.51,4.36,5.17,5.06,12.23,14.03,9.54,14.62-4.37.6-26.36,3.5-36.51,54.33-68.44,125.74-126.08,209.45-154.03Z"/><path d="M1132.02,134.83v130.5c0,1.7-4.93,9.97-6.51,11.49-10.76,10.34-29.09,6.5-34.73-7.26l-.26-103.73c10.04-7.98,19.75-16.33,30.18-23.82,3.48-2.5,7.33-5.71,11.32-7.18Z"/><path d="M1090.02,133.83v-64.5c0-.37,2.99-5.65,3.56-6.44,10.76-14.81,35.62-8.18,38.38,9.5,1.07,6.87.95,30.83.12,38-.17,1.44-.1,2.63-1.66,3.34l-40.39,20.11Z"/><path d="M927.02,219.83l8.09,32.36-10.49,4.7c-1.56-.27-8.88-28.96-8.65-30.53.43-2.88,8.21-5.66,11.05-6.53Z"/><polygon points="936.01 261.83 942.02 292.82 939.01 292.16 929.01 264.35 936.01 261.83"/><path d="M871.92,110.94l.99,6.77-19.57,10.01c-7.34-4.29.91-8.88,1.6-14.49.48-3.93-.61-7.64-1.42-11.4-2.01-9.42-8.26-34.02-11.99-42.01-3.96-8.48-11.74-1.58-12.21-12.54l20.21-11.42c.87.05,3.26,6.6,3.16,7.5-.14,1.35-5.6,4.65-5.42,10.7.24,7.96,9.25,36.84,12.26,45.77,2.44,7.23,3.07,11.84,12.39,11.11Z" style="fill:#fff;"/><path d="M844.01,133.78l-11.98,6.05-21.84-82.82,10.34-6.17c5.42,7.46-1.08,10.2-2.27,14.73-1.72,6.57,4.05,23.12,6.04,30.48,1.45,5.37,6.71,27.53,10.73,29.27,5.03,2.18,7.91-.87,8.97,8.47Z" style="fill:#fff;"/><path d="M846.08,16.78l-3.05-8.94,6.4-1.89c4.77,4.99,4.24,10.35-3.34,10.83Z" style="fill:#fff;"/></g></svg>